STARTFONT 2.1
COMMENT Created by fdbbdf
FONT blshft12
SIZE 12 78 78
FONTBOUNDINGBOX 17 13 0 -4
STARTPROPERTIES 4
Ownership "  "
FONT_ASCENT 9
FONT_DESCENT 4
DEFAULT_CHAR 32
ENDPROPERTIES
CHARS 114
STARTCHAR ch-0
ENCODING -1 0
SWIDTH 0 0
DWIDTH 17 0
BBX 0 0 0 0
BITMAP
ENDCHAR
STARTCHAR ch-1
ENCODING -1 1
SWIDTH 0 0
DWIDTH 17 0
BBX 0 0 0 0
BITMAP
ENDCHAR
STARTCHAR ch-2
ENCODING -1 2
SWIDTH 0 0
DWIDTH 17 0
BBX 0 0 0 0
BITMAP
ENDCHAR
STARTCHAR ch-3
ENCODING -1 3
SWIDTH 0 0
DWIDTH 17 0
BBX 0 0 0 0
BITMAP
ENDCHAR
STARTCHAR ch-4
ENCODING -1 4
SWIDTH 0 0
DWIDTH 17 0
BBX 0 0 0 0
BITMAP
ENDCHAR
STARTCHAR ch-5
ENCODING -1 5
SWIDTH 0 0
DWIDTH 17 0
BBX 0 0 0 0
BITMAP
ENDCHAR
STARTCHAR ch-6
ENCODING -1 6
SWIDTH 0 0
DWIDTH 17 0
BBX 0 0 0 0
BITMAP
ENDCHAR
STARTCHAR ch-7
ENCODING -1 7
SWIDTH 0 0
DWIDTH 17 0
BBX 0 0 0 0
BITMAP
ENDCHAR
STARTCHAR ch-8
ENCODING -1 8
SWIDTH 0 0
DWIDTH 17 0
BBX 0 0 0 0
BITMAP
ENDCHAR
STARTCHAR ch-9
ENCODING -1 9
SWIDTH 0 0
DWIDTH 17 0
BBX 0 0 0 0
BITMAP
ENDCHAR
STARTCHAR ch-10
ENCODING -1 10
SWIDTH 0 0
DWIDTH 17 0
BBX 0 0 0 0
BITMAP
ENDCHAR
STARTCHAR ch-11
ENCODING -1 11
SWIDTH 0 0
DWIDTH 17 0
BBX 0 0 0 0
BITMAP
ENDCHAR
STARTCHAR ch-12
ENCODING -1 12
SWIDTH 0 0
DWIDTH 17 0
BBX 0 0 0 0
BITMAP
ENDCHAR
STARTCHAR ch-13
ENCODING -1 13
SWIDTH 0 0
DWIDTH 17 0
BBX 0 0 0 0
BITMAP
ENDCHAR
STARTCHAR ch-14
ENCODING -1 14
SWIDTH 0 0
DWIDTH 17 0
BBX 0 0 0 0
BITMAP
ENDCHAR
STARTCHAR ch-15
ENCODING -1 15
SWIDTH 0 0
DWIDTH 17 0
BBX 0 0 0 0
BITMAP
ENDCHAR
STARTCHAR ch-24
ENCODING -1 24
SWIDTH 0 0
DWIDTH 17 0
BBX 0 0 0 0
BITMAP
ENDCHAR
STARTCHAR ch-25
ENCODING -1 25
SWIDTH 0 0
DWIDTH 17 0
BBX 0 0 0 0
BITMAP
ENDCHAR
STARTCHAR ch-26
ENCODING -1 26
SWIDTH 0 0
DWIDTH 17 0
BBX 0 0 0 0
BITMAP
ENDCHAR
STARTCHAR sp
ENCODING -1 32
SWIDTH 0 0
DWIDTH 7 0
BBX 0 0 0 0
BITMAP
ENDCHAR
STARTCHAR !
ENCODING -1 33
SWIDTH 0 0
DWIDTH 17 0
BBX 16 13 0 -4
BITMAP
ffc0
6020
2020
2010
2010
2010
2010
2010
1008
1008
1008
0806
07ff
ENDCHAR
STARTCHAR "
ENCODING -1 34
SWIDTH 0 0
DWIDTH 17 0
BBX 17 13 0 -4
BITMAP
1f9f8000
10808000
f0fe8000
80028000
80028000
80028000
80030000
80030000
80030000
80020000
80020000
80020000
fffe0000
ENDCHAR
STARTCHAR #
ENCODING -1 35
SWIDTH 0 0
DWIDTH 17 0
BBX 15 13 0 -4
BITMAP
fffe
c006
a00a
9012
8822
8442
8282
8102
8002
8002
8002
8002
fffe
ENDCHAR
STARTCHAR $
ENCODING -1 36
SWIDTH 0 0
DWIDTH 17 0
BBX 17 10 0 -1
BITMAP
21ff8000
d9008000
02870000
02990000
b4620000
44420000
08040000
08040000
d0080000
1ff80000
ENDCHAR
STARTCHAR %
ENCODING -1 37
SWIDTH 0 0
DWIDTH 17 0
BBX 8 13 5 -4
BITMAP
3c00
5600
c200
8300
8600
0600
0c00
1800
3000
3000
0000
3000
3000
ENDCHAR
STARTCHAR &
ENCODING -1 38
SWIDTH 0 0
DWIDTH 17 0
BBX 15 13 0 -4
BITMAP
0018
0024
2a18
0020
0050
5492
008c
0100
a280
04f0
0820
1040
2080
ENDCHAR
STARTCHAR '
ENCODING -1 39
SWIDTH 0 0
DWIDTH 17 0
BBX 9 7 0 -1
BITMAP
3780
5080
5100
9100
f200
1200
1200
ENDCHAR
STARTCHAR (
ENCODING -1 40
SWIDTH 0 0
DWIDTH 17 0
BBX 8 8 4 -1
BITMAP
c300
ff00
7e00
6600
6600
7e00
ff00
c300
ENDCHAR
STARTCHAR )
ENCODING -1 41
SWIDTH 0 0
DWIDTH 17 0
BBX 16 13 0 -4
BITMAP
ffc0
6020
2010
2190
2248
2208
2208
2208
1248
1188
1008
0806
07ff
ENDCHAR
STARTCHAR *
ENCODING -1 42
SWIDTH 0 0
DWIDTH 17 0
BBX 8 8 4 -1
BITMAP
7e00
8100
8100
8100
8100
8100
8100
7e00
ENDCHAR
STARTCHAR +
ENCODING -1 43
SWIDTH 0 0
DWIDTH 17 0
BBX 16 13 0 -4
BITMAP
ffff
8001
8001
8001
81e1
8331
8211
8201
8211
9b31
99e1
8001
ffff
ENDCHAR
STARTCHAR ,
ENCODING -1 44
SWIDTH 0 0
DWIDTH 17 0
BBX 16 13 0 -4
BITMAP
ffff
8001
8101
8101
8101
8101
8161
81b1
8111
9911
9911
8001
ffff
ENDCHAR
STARTCHAR -
ENCODING -1 45
SWIDTH 0 0
DWIDTH 7 0
BBX 5 1 1 3
BITMAP
f800
ENDCHAR
STARTCHAR .
ENCODING -1 46
SWIDTH 0 0
DWIDTH 7 0
BBX 2 2 3 -1
BITMAP
c000
c000
ENDCHAR
STARTCHAR /
ENCODING -1 47
SWIDTH 0 0
DWIDTH 17 0
BBX 9 7 0 -1
BITMAP
f780
8080
8100
6200
1200
9200
6200
ENDCHAR
STARTCHAR 0
ENCODING -1 48
SWIDTH 0 0
DWIDTH 7 0
BBX 4 8 2 -1
BITMAP
6000
9000
9000
9000
9000
9000
9000
6000
ENDCHAR
STARTCHAR 1
ENCODING -1 49
SWIDTH 0 0
DWIDTH 7 0
BBX 5 8 1 -1
BITMAP
e000
2000
2000
2000
2000
2000
2000
f800
ENDCHAR
STARTCHAR 2
ENCODING -1 50
SWIDTH 0 0
DWIDTH 7 0
BBX 5 8 1 -1
BITMAP
3000
4800
0800
0800
1000
2000
4000
f800
ENDCHAR
STARTCHAR 3
ENCODING -1 51
SWIDTH 0 0
DWIDTH 7 0
BBX 5 8 1 -1
BITMAP
7000
8800
0800
3000
0800
0800
8800
7000
ENDCHAR
STARTCHAR 4
ENCODING -1 52
SWIDTH 0 0
DWIDTH 7 0
BBX 5 8 1 -1
BITMAP
1000
3000
5000
5000
9000
f800
1000
3800
ENDCHAR
STARTCHAR 5
ENCODING -1 53
SWIDTH 0 0
DWIDTH 7 0
BBX 5 8 1 -1
BITMAP
f800
8000
8000
f000
0800
0800
8800
7000
ENDCHAR
STARTCHAR 6
ENCODING -1 54
SWIDTH 0 0
DWIDTH 7 0
BBX 5 8 1 -1
BITMAP
3800
4000
8000
f000
8800
8800
8800
7000
ENDCHAR
STARTCHAR 7
ENCODING -1 55
SWIDTH 0 0
DWIDTH 7 0
BBX 4 8 2 -1
BITMAP
f000
9000
1000
2000
2000
2000
4000
4000
ENDCHAR
STARTCHAR 8
ENCODING -1 56
SWIDTH 0 0
DWIDTH 7 0
BBX 5 8 1 -1
BITMAP
7000
8800
8800
7000
8800
8800
8800
7000
ENDCHAR
STARTCHAR 9
ENCODING -1 57
SWIDTH 0 0
DWIDTH 7 0
BBX 5 8 1 -1
BITMAP
7000
8800
8800
8800
7800
0800
1000
e000
ENDCHAR
STARTCHAR :
ENCODING -1 58
SWIDTH 0 0
DWIDTH 17 0
BBX 9 7 0 -1
BITMAP
f300
1480
2080
4100
4200
4400
4780
ENDCHAR
STARTCHAR ;
ENCODING -1 59
SWIDTH 0 0
DWIDTH 17 0
BBX 9 7 0 -1
BITMAP
f300
1480
2080
4300
4080
4480
4300
ENDCHAR
STARTCHAR <
ENCODING -1 60
SWIDTH 0 0
DWIDTH 17 0
BBX 9 7 0 -1
BITMAP
f080
1180
2280
4480
4780
4080
4080
ENDCHAR
STARTCHAR =
ENCODING -1 61
SWIDTH 0 0
DWIDTH 17 0
BBX 13 11 2 -2
BITMAP
0920
5290
0440
5108
a420
4880
2250
9080
4a10
00a0
2500
ENDCHAR
STARTCHAR >
ENCODING -1 62
SWIDTH 0 0
DWIDTH 17 0
BBX 0 0 0 0
BITMAP
ENDCHAR
STARTCHAR ?
ENCODING -1 63
SWIDTH 0 0
DWIDTH 17 0
BBX 14 13 0 -4
BITMAP
0fc0
3030
6038
4068
c0cc
8184
8304
8604
8c04
5808
7008
3030
0fc0
ENDCHAR
STARTCHAR @
ENCODING -1 64
SWIDTH 0 0
DWIDTH 7 0
BBX 5 9 1 -2
BITMAP
7000
8800
9800
a800
a800
a800
9800
8000
7800
ENDCHAR
STARTCHAR A
ENCODING -1 65
SWIDTH 0 0
DWIDTH 7 0
BBX 7 8 0 -1
BITMAP
7800
2800
2800
2800
7c00
4400
4400
ee00
ENDCHAR
STARTCHAR B
ENCODING -1 66
SWIDTH 0 0
DWIDTH 7 0
BBX 6 8 1 -1
BITMAP
f800
4400
4400
7800
4400
4400
4400
f800
ENDCHAR
STARTCHAR C
ENCODING -1 67
SWIDTH 0 0
DWIDTH 7 0
BBX 6 8 1 -1
BITMAP
7800
8400
8000
8000
8000
8000
8400
7800
ENDCHAR
STARTCHAR D
ENCODING -1 68
SWIDTH 0 0
DWIDTH 7 0
BBX 6 8 1 -1
BITMAP
f800
4400
4400
4400
4400
4400
4400
f800
ENDCHAR
STARTCHAR E
ENCODING -1 69
SWIDTH 0 0
DWIDTH 7 0
BBX 6 8 1 -1
BITMAP
fc00
4400
5000
7000
5000
4000
4400
fc00
ENDCHAR
STARTCHAR F
ENCODING -1 70
SWIDTH 0 0
DWIDTH 7 0
BBX 6 8 1 -1
BITMAP
fc00
4400
5000
7000
5000
4000
4000
e000
ENDCHAR
STARTCHAR G
ENCODING -1 71
SWIDTH 0 0
DWIDTH 7 0
BBX 6 8 1 -1
BITMAP
7800
8400
8400
8000
9c00
8400
8400
7800
ENDCHAR
STARTCHAR H
ENCODING -1 72
SWIDTH 0 0
DWIDTH 7 0
BBX 6 8 1 -1
BITMAP
cc00
4800
4800
7800
4800
4800
4800
cc00
ENDCHAR
STARTCHAR I
ENCODING -1 73
SWIDTH 0 0
DWIDTH 7 0
BBX 3 8 2 -1
BITMAP
e000
4000
4000
4000
4000
4000
4000
e000
ENDCHAR
STARTCHAR J
ENCODING -1 74
SWIDTH 0 0
DWIDTH 7 0
BBX 6 8 1 -1
BITMAP
7c00
0800
0800
0800
0800
8800
8800
7000
ENDCHAR
STARTCHAR K
ENCODING -1 75
SWIDTH 0 0
DWIDTH 7 0
BBX 6 8 1 -1
BITMAP
cc00
4400
4800
5000
7000
4800
4800
cc00
ENDCHAR
STARTCHAR L
ENCODING -1 76
SWIDTH 0 0
DWIDTH 7 0
BBX 6 8 1 -1
BITMAP
e000
4000
4000
4000
4000
4000
4400
fc00
ENDCHAR
STARTCHAR M
ENCODING -1 77
SWIDTH 0 0
DWIDTH 7 0
BBX 7 8 0 -1
BITMAP
c600
6c00
6c00
5400
5400
5400
4400
c600
ENDCHAR
STARTCHAR N
ENCODING -1 78
SWIDTH 0 0
DWIDTH 7 0
BBX 6 8 1 -1
BITMAP
cc00
6400
6400
5400
5400
4c00
4c00
e400
ENDCHAR
STARTCHAR O
ENCODING -1 79
SWIDTH 0 0
DWIDTH 7 0
BBX 6 8 1 -1
BITMAP
3000
4800
8400
8400
8400
8400
4800
3000
ENDCHAR
STARTCHAR P
ENCODING -1 80
SWIDTH 0 0
DWIDTH 7 0
BBX 6 8 1 -1
BITMAP
f800
4400
4400
4400
7800
4000
4000
e000
ENDCHAR
STARTCHAR Q
ENCODING -1 81
SWIDTH 0 0
DWIDTH 7 0
BBX 6 10 1 -3
BITMAP
3000
4800
8400
8400
8400
8400
4800
3000
2000
5c00
ENDCHAR
STARTCHAR R
ENCODING -1 82
SWIDTH 0 0
DWIDTH 7 0
BBX 6 8 1 -1
BITMAP
f800
4400
4400
4400
7800
4800
4400
c400
ENDCHAR
STARTCHAR S
ENCODING -1 83
SWIDTH 0 0
DWIDTH 7 0
BBX 5 8 1 -1
BITMAP
7800
8800
8000
7000
0800
0800
8800
f000
ENDCHAR
STARTCHAR T
ENCODING -1 84
SWIDTH 0 0
DWIDTH 7 0
BBX 5 8 1 -1
BITMAP
f800
a800
2000
2000
2000
2000
2000
7000
ENDCHAR
STARTCHAR U
ENCODING -1 85
SWIDTH 0 0
DWIDTH 7 0
BBX 7 8 0 -1
BITMAP
ee00
4400
4400
4400
4400
4400
4400
3800
ENDCHAR
STARTCHAR V
ENCODING -1 86
SWIDTH 0 0
DWIDTH 7 0
BBX 7 8 0 -1
BITMAP
ee00
4400
4400
2800
2800
2800
1000
1000
ENDCHAR
STARTCHAR W
ENCODING -1 87
SWIDTH 0 0
DWIDTH 7 0
BBX 7 8 0 -1
BITMAP
ee00
4400
4400
5400
5400
5400
2800
2800
ENDCHAR
STARTCHAR X
ENCODING -1 88
SWIDTH 0 0
DWIDTH 7 0
BBX 6 8 1 -1
BITMAP
cc00
4800
4800
3000
3000
4800
4800
cc00
ENDCHAR
STARTCHAR Y
ENCODING -1 89
SWIDTH 0 0
DWIDTH 7 0
BBX 7 8 0 -1
BITMAP
ee00
4400
2800
2800
1000
1000
1000
3800
ENDCHAR
STARTCHAR Z
ENCODING -1 90
SWIDTH 0 0
DWIDTH 7 0
BBX 5 8 1 -1
BITMAP
f800
8800
1000
2000
2000
4000
8800
f800
ENDCHAR
STARTCHAR [
ENCODING -1 91
SWIDTH 0 0
DWIDTH 7 0
BBX 4 12 2 -4
BITMAP
f000
8000
8000
8000
8000
8000
8000
8000
8000
8000
8000
f000
ENDCHAR
STARTCHAR \
ENCODING -1 92
SWIDTH 0 0
DWIDTH 7 0
BBX 6 12 1 -4
BITMAP
8000
8000
4000
4000
2000
2000
1000
1000
0800
0800
0400
0400
ENDCHAR
STARTCHAR ]
ENCODING -1 93
SWIDTH 0 0
DWIDTH 7 0
BBX 4 12 2 -4
BITMAP
f000
1000
1000
1000
1000
1000
1000
1000
1000
1000
1000
f000
ENDCHAR
STARTCHAR ^
ENCODING -1 94
SWIDTH 0 0
DWIDTH 7 0
BBX 7 4 0 5
BITMAP
1000
2800
4400
c600
ENDCHAR
STARTCHAR _
ENCODING -1 95
SWIDTH 0 0
DWIDTH 7 0
BBX 7 1 0 -3
BITMAP
fe00
ENDCHAR
STARTCHAR `
ENCODING -1 96
SWIDTH 0 0
DWIDTH 7 0
BBX 4 4 2 4
BITMAP
8000
c000
6000
3000
ENDCHAR
STARTCHAR a
ENCODING -1 97
SWIDTH 0 0
DWIDTH 7 0
BBX 6 6 1 -1
BITMAP
f000
0800
7800
8800
8800
7400
ENDCHAR
STARTCHAR b
ENCODING -1 98
SWIDTH 0 0
DWIDTH 7 0
BBX 6 9 1 -1
BITMAP
c000
4000
4000
7800
4400
4400
4400
4400
f800
ENDCHAR
STARTCHAR c
ENCODING -1 99
SWIDTH 0 0
DWIDTH 7 0
BBX 5 6 1 -1
BITMAP
7000
8800
8000
8000
8800
7000
ENDCHAR
STARTCHAR d
ENCODING -1 100
SWIDTH 0 0
DWIDTH 7 0
BBX 6 9 1 -1
BITMAP
1800
0800
0800
7800
8800
8800
8800
8800
7c00
ENDCHAR
STARTCHAR e
ENCODING -1 101
SWIDTH 0 0
DWIDTH 7 0
BBX 5 6 1 -1
BITMAP
7000
8800
f800
8000
8800
7000
ENDCHAR
STARTCHAR f
ENCODING -1 102
SWIDTH 0 0
DWIDTH 7 0
BBX 5 9 2 -1
BITMAP
3800
4000
4000
f000
4000
4000
4000
4000
f000
ENDCHAR
STARTCHAR g
ENCODING -1 103
SWIDTH 0 0
DWIDTH 7 0
BBX 6 9 1 -4
BITMAP
7400
8800
8800
8800
8800
7800
0800
0800
7000
ENDCHAR
STARTCHAR h
ENCODING -1 104
SWIDTH 0 0
DWIDTH 7 0
BBX 7 9 0 -1
BITMAP
c000
4000
4000
7800
4400
4400
4400
4400
c600
ENDCHAR
STARTCHAR i
ENCODING -1 105
SWIDTH 0 0
DWIDTH 7 0
BBX 3 9 3 -1
BITMAP
4000
4000
0000
c000
4000
4000
4000
4000
e000
ENDCHAR
STARTCHAR j
ENCODING -1 106
SWIDTH 0 0
DWIDTH 7 0
BBX 4 12 2 -4
BITMAP
2000
2000
0000
f000
1000
1000
1000
1000
1000
1000
1000
e000
ENDCHAR
STARTCHAR k
ENCODING -1 107
SWIDTH 0 0
DWIDTH 7 0
BBX 6 9 1 -1
BITMAP
c000
4000
4000
4c00
4800
5000
7000
4800
cc00
ENDCHAR
STARTCHAR l
ENCODING -1 108
SWIDTH 0 0
DWIDTH 7 0
BBX 5 9 1 -1
BITMAP
e000
2000
2000
2000
2000
2000
2000
2000
f800
ENDCHAR
STARTCHAR m
ENCODING -1 109
SWIDTH 0 0
DWIDTH 7 0
BBX 7 6 0 -1
BITMAP
a800
5400
5400
5400
5400
d600
ENDCHAR
STARTCHAR n
ENCODING -1 110
SWIDTH 0 0
DWIDTH 7 0
BBX 6 6 1 -1
BITMAP
b000
4800
4800
4800
4800
cc00
ENDCHAR
STARTCHAR o
ENCODING -1 111
SWIDTH 0 0
DWIDTH 7 0
BBX 5 6 1 -1
BITMAP
7000
8800
8800
8800
8800
7000
ENDCHAR
STARTCHAR p
ENCODING -1 112
SWIDTH 0 0
DWIDTH 7 0
BBX 6 9 1 -4
BITMAP
f800
4400
4400
4400
4400
7800
4000
4000
e000
ENDCHAR
STARTCHAR q
ENCODING -1 113
SWIDTH 0 0
DWIDTH 7 0
BBX 6 9 1 -4
BITMAP
7c00
8800
8800
8800
8800
7800
0800
0800
1c00
ENDCHAR
STARTCHAR r
ENCODING -1 114
SWIDTH 0 0
DWIDTH 7 0
BBX 5 6 1 -1
BITMAP
d800
6000
4000
4000
4000
e000
ENDCHAR
STARTCHAR s
ENCODING -1 115
SWIDTH 0 0
DWIDTH 7 0
BBX 5 6 1 -1
BITMAP
7800
8800
6000
1800
8800
f000
ENDCHAR
STARTCHAR t
ENCODING -1 116
SWIDTH 0 0
DWIDTH 7 0
BBX 5 8 1 -1
BITMAP
4000
4000
f000
4000
4000
4000
4800
3000
ENDCHAR
STARTCHAR u
ENCODING -1 117
SWIDTH 0 0
DWIDTH 7 0
BBX 6 6 1 -1
BITMAP
d800
4800
4800
4800
4800
7400
ENDCHAR
STARTCHAR v
ENCODING -1 118
SWIDTH 0 0
DWIDTH 7 0
BBX 6 6 1 -1
BITMAP
dc00
8800
4800
5000
3000
2000
ENDCHAR
STARTCHAR w
ENCODING -1 119
SWIDTH 0 0
DWIDTH 7 0
BBX 7 6 0 -1
BITMAP
c600
4400
4400
5400
5400
2800
ENDCHAR
STARTCHAR x
ENCODING -1 120
SWIDTH 0 0
DWIDTH 7 0
BBX 6 6 1 -1
BITMAP
cc00
4800
3000
3000
4800
cc00
ENDCHAR
STARTCHAR y
ENCODING -1 121
SWIDTH 0 0
DWIDTH 7 0
BBX 6 9 1 -4
BITMAP
cc00
4400
4800
2800
3000
1000
2000
2000
c000
ENDCHAR
STARTCHAR z
ENCODING -1 122
SWIDTH 0 0
DWIDTH 7 0
BBX 5 6 1 -1
BITMAP
f800
9000
2000
2000
4800
f800
ENDCHAR
STARTCHAR {
ENCODING -1 123
SWIDTH 0 0
DWIDTH 7 0
BBX 4 12 2 -4
BITMAP
3000
4000
4000
4000
4000
8000
8000
4000
4000
4000
4000
3000
ENDCHAR
STARTCHAR |
ENCODING -1 124
SWIDTH 0 0
DWIDTH 7 0
BBX 1 11 3 -3
BITMAP
8000
8000
8000
8000
8000
8000
8000
8000
8000
8000
8000
ENDCHAR
STARTCHAR }
ENCODING -1 125
SWIDTH 0 0
DWIDTH 7 0
BBX 4 12 2 -4
BITMAP
c000
2000
2000
2000
2000
1000
1000
2000
2000
2000
2000
c000
ENDCHAR
STARTCHAR ~
ENCODING -1 126
SWIDTH 0 0
DWIDTH 7 0
BBX 6 3 1 5
BITMAP
6400
b400
9800
ENDCHAR
ENDFONT
